<svg data-name="Layer 1"
    xmlns="http://www.w3.org/2000/svg" viewBox="0 0 698 698">
    <defs>
        <linearGradient id="a" x1="349" y1="698" x2="349" gradientUnits="userSpaceOnUse">
            <stop offset="0" stop-color="gray" stop-opacity=".3"/>
            <stop offset=".5" stop-color="gray" stop-opacity=".1"/>
            <stop offset="1" stop-color="gray" stop-opacity=".1"/>
        </linearGradient>
    </defs>
    <circle cx="349" cy="349" r="349" fill="url(#a)" opacity=".5"/>
    <circle cx="349.7" cy="346.8" r="341.6" fill="#f5f5f5"/>
    <path d="M350 690a340 340 0 00188-56c-13-69-61-73-61-73H213s-45 4-59 67a340 340 0 00196 62z" fill="#6c63ff"/>
    <circle cx="346.4" cy="339.6" r="164.9" fill="#333"/>
    <path d="M293 477h106v84a53 53 0 01-53 53 53 53 0 01-53-53v-84z" opacity=".1"/>
    <path d="M297 473h99a3 3 0 013 3v82a53 53 0 01-53 52 53 53 0 01-53-52v-82a3 3 0 014-3z" fill="#fdb797"/>
    <path d="M293 517a152 152 0 00106 0v-13H293z" opacity=".1"/>
    <circle cx="346.4" cy="372.4" r="151.4" fill="#fdb797"/>
    <path d="M238 235s64 129 244 54l-42-66-74-26z" opacity=".1"/>
    <path d="M238 233s64 129 244 54l-42-66-74-26z" fill="#333"/>
    <path d="M238 224a87 87 0 0122-35c29-30 78-36 103-70 6 10 2 24-9 28 24 0 52-2 66-22a45 45 0 01-8 48c21 1 44 15 45 36 1 14-8 28-19 36s-26 12-40 15c-40 9-186 46-160-36z" fill="#333"/>
    <ellipse cx="194.9" cy="372.3" rx="14.1" ry="26.4" fill="#fdb797"/>
    <ellipse cx="497.8" cy="372.3" rx="14.1" ry="26.4" fill="#fdb797"/>
</svg>